<svg width="29" height="29" viewBox="0 0 29 29" fill="none" xmlns="http://www.w3.org/2000/svg">
<path d="M14.5 28.5C6.76801 28.5 0.500001 22.232 0.500001 14.5C0.500002 6.76801 6.76801 0.499999 14.5 0.499999C22.232 0.5 28.5 6.76801 28.5 14.5C28.5 22.232 22.232 28.5 14.5 28.5Z" stroke="white"/>
<path d="M15 7C10.5813 7 7 9.90937 7 13.5C7 15.05 7.66875 16.4688 8.78125 17.5844C8.39062 19.1594 7.08438 20.5625 7.06875 20.5781C7 20.65 6.98125 20.7563 7.02187 20.85C7.0625 20.9438 7.15 21 7.25 21C9.32188 21 10.875 20.0063 11.6438 19.3938C12.6656 19.7781 13.8 20 15 20C19.4187 20 23 17.0906 23 13.5C23 9.90937 19.4187 7 15 7ZM11 14.5C10.4469 14.5 10 14.0531 10 13.5C10 12.9469 10.4469 12.5 11 12.5C11.5531 12.5 12 12.9469 12 13.5C12 14.0531 11.5531 14.5 11 14.5ZM15 14.5C14.4469 14.5 14 14.0531 14 13.5C14 12.9469 14.4469 12.5 15 12.5C15.5531 12.5 16 12.9469 16 13.5C16 14.0531 15.5531 14.5 15 14.5ZM19 14.5C18.4469 14.5 18 14.0531 18 13.5C18 12.9469 18.4469 12.5 19 12.5C19.5531 12.5 20 12.9469 20 13.5C20 14.0531 19.5531 14.5 19 14.5Z" fill="white"/>
</svg>
