<svg width="29" height="29" viewBox="0 0 29 29" fill="none" xmlns="http://www.w3.org/2000/svg">
<path d="M14.5 28.5C6.76801 28.5 0.500001 22.232 0.500001 14.5C0.500002 6.76801 6.76801 0.499999 14.5 0.499999C22.232 0.5 28.5 6.76801 28.5 14.5C28.5 22.232 22.232 28.5 14.5 28.5Z" stroke="white"/>
<path d="M16.2706 6C16.1213 6 16 6.12128 16 6.27075C16 6.28463 16.0059 6.29668 16.008 6.31015H16V12.7293C16 12.8787 16.1213 13 16.2706 13H22.6898V12.992C22.7033 12.9941 22.7154 13 22.7294 13C22.8787 13 23 12.8787 23 12.7293C22.9616 9.02946 19.9706 6.03859 16.2706 6Z" fill="white"/>
<path d="M21 15.4205C21 15.2558 20.8665 15.122 20.7017 15.122H14.1963C14.1171 15.122 14.0413 15.0905 13.9853 15.0345C13.9294 14.9786 13.898 14.9027 13.898 14.8235V8.34194H13.8892C13.8915 8.32709 13.898 8.3138 13.898 8.2985C13.898 8.13349 13.7643 8 13.5995 8C13.5923 8 13.5864 8.0036 13.5795 8.00405V8.00203C13.5529 8.0018 13.5266 8 13.5 8C9.35797 8 6 11.358 6 15.5C6 19.642 9.35797 23 13.5 23C17.642 23 21 19.642 21 15.5C21 15.4761 20.9989 15.4525 20.9984 15.4284C20.9984 15.4255 21 15.4232 21 15.4205Z" fill="white"/>
</svg>
