<svg width="29" height="30" viewBox="0 0 29 30" fill="none" xmlns="http://www.w3.org/2000/svg">
<path d="M5.74414 18.5399H3.94627C2.66205 18.5399 1.61133 17.4917 1.61133 16.2107V12.7169C1.61133 11.4358 2.66205 10.3877 3.94627 10.3877H5.74414V18.5399Z" stroke="white" stroke-width="1.5" stroke-miterlimit="10" stroke-linecap="round" stroke-linejoin="round"/>
<path d="M23.2559 18.5399H25.0538C26.3381 18.5399 27.3888 17.4917 27.3888 16.2107V12.7169C27.3888 11.4358 26.3381 10.3877 25.0538 10.3877H23.2559V18.5399Z" stroke="white" stroke-width="1.5" stroke-miterlimit="10" stroke-linecap="round" stroke-linejoin="round"/>
<path d="M24.4233 18.5405V20.8697C24.4233 23.4318 22.0883 26.6927 18.5859 26.6927H16.251" stroke="white" stroke-width="1.5" stroke-miterlimit="10" stroke-linecap="round" stroke-linejoin="round"/>
<path d="M15.0835 28.3H13.519C12.8186 28.3 12.3516 27.4846 12.3516 26.7859C12.3516 26.0871 12.8186 25.1787 13.519 25.1787H15.0834C15.7839 25.1787 16.2509 26.0871 16.2509 26.7859C16.2509 27.4846 15.7839 28.3 15.0835 28.3Z" stroke="white" stroke-width="1.5" stroke-miterlimit="10" stroke-linecap="round" stroke-linejoin="round"/>
<path d="M5.74414 10.3881V9.22346C5.74414 4.68154 9.3633 1.07129 13.9164 1.07129H15.0839C19.6371 1.07129 23.2562 4.68154 23.2562 9.22346V10.3881" stroke="white" stroke-width="1.5" stroke-miterlimit="10" stroke-linecap="round" stroke-linejoin="round"/>
</svg>
