<svg width="29" height="29" viewBox="0 0 29 29" fill="none" xmlns="http://www.w3.org/2000/svg">
<g clip-path="url(#clip0_286_1061)">
<path d="M14.5 28.5C6.76801 28.5 0.500001 22.232 0.500001 14.5C0.500002 6.76801 6.76801 0.499999 14.5 0.499999C22.232 0.5 28.5 6.76801 28.5 14.5C28.5 22.232 22.232 28.5 14.5 28.5Z" stroke="white"/>
<path d="M20 18.9021V20.2196C20.0005 20.692 19.8266 21.1452 19.5164 21.4792C19.2061 21.8134 18.7853 22.0007 18.3467 22H10.6533C10.2146 22.0007 9.79375 21.8134 9.48359 21.4792C9.17345 21.1452 8.99937 20.692 9 20.2196V18.9021C9.00108 17.8007 9.40794 16.7447 10.1311 15.9659C10.8543 15.1871 11.8348 14.749 12.8577 14.7478H16.1423C17.165 14.749 18.1456 15.1871 18.8688 15.9659C19.5921 16.7447 19.9988 17.8006 20 18.9021ZM14.5 13.5609C15.4305 13.5592 16.322 13.16 16.9793 12.4507C17.6365 11.7415 18.0054 10.7804 18.0048 9.77844C18.0044 8.77645 17.6345 7.81569 16.9767 7.10713C16.3188 6.39873 15.4266 6.00051 14.4961 6C13.5658 5.9995 12.6732 6.39676 12.0147 7.1045C11.3561 7.81222 10.9854 8.7725 10.9838 9.77446C10.9838 10.7786 11.3542 11.7417 12.0137 12.4519C12.6731 13.1619 13.5676 13.5609 14.5 13.5609Z" fill="white"/>
</g>
<defs>
<clipPath id="clip0_286_1061">
<rect width="29" height="29" fill="white"/>
</clipPath>
</defs>
</svg>
